# Blender 4.4.0
# www.blender.org
mtllib plataformablend.mtl
o Plane
v 0.000000 0.000000 -0.000000
v -2.632301 -1.138852 2.632301
v 2.632301 -1.138852 2.632301
v -2.632301 -1.138852 -2.632301
v 2.632301 -1.138852 -2.632301
v -3.591357 -1.138852 -0.000000
v 0.000000 -1.138852 3.591357
v 3.591357 -1.138852 -0.000000
v 0.000000 -1.138852 -3.591357
v -1.385423 -2.696602 1.385423
v -2.279346 -2.045548 2.279346
v 2.279346 -2.045548 2.279346
v -2.279346 -2.045548 -2.279346
v 2.279346 -2.045548 -2.279346
v -3.109806 -2.045548 -0.000000
v 0.000000 -2.045548 3.109806
v 3.109806 -2.045548 -0.000000
v 0.000000 -2.045548 -3.109806
v 1.385423 -2.696602 1.385423
v -1.385423 -2.696602 -1.385423
v 1.385423 -2.696602 -1.385423
v -1.890190 -2.696602 -0.000000
v 0.000000 -2.696602 1.890190
v 1.890190 -2.696602 -0.000000
v 0.000000 -2.696602 -1.890190
v 0.000000 -2.696602 -0.000000
v -2.583367 0.000000 2.583367
v -2.766277 -0.286427 2.766277
v 2.583367 0.000000 2.583367
v 2.766277 -0.286427 2.766277
v -2.766277 -0.286427 -2.766277
v -2.583367 0.000000 -2.583367
v 2.583367 0.000000 -2.583367
v 2.766277 -0.286427 -2.766277
v -3.524594 0.000000 -0.000000
v -3.774146 -0.286427 -0.000000
v 0.000000 0.000000 3.524594
v 0.000000 -0.286427 3.774146
v 3.524594 0.000000 -0.000000
v 3.774146 -0.286427 -0.000000
v 0.000000 0.000000 -3.524594
v 0.000000 -0.286427 -3.774146
vn -0.0000 -1.0000 -0.0000
vn 0.6647 0.3412 -0.6647
vn -0.6647 0.3412 -0.6647
vn 0.6647 0.3412 0.6647
vn -0.6647 0.3412 0.6647
vn 0.9428 0.3333 -0.0000
vn -0.0000 0.3333 -0.9428
vn -0.9428 0.3333 -0.0000
vn -0.0000 0.3333 0.9428
vn 0.2087 0.9555 -0.2087
vn 0.5190 0.6791 -0.5190
vn -0.5190 0.6791 -0.5190
vn 0.5190 0.6791 0.5190
vn -0.5190 0.6791 0.5190
vn 0.7372 0.6757 -0.0000
vn -0.0000 0.6757 -0.7372
vn -0.7372 0.6757 -0.0000
vn -0.0000 0.6757 0.7372
vn -0.2087 0.9555 -0.2087
vn 0.2087 0.9555 0.2087
vn -0.2087 0.9555 0.2087
vn 0.2921 0.9564 -0.0000
vn -0.0000 0.9564 -0.2921
vn -0.2921 0.9564 -0.0000
vn -0.0000 0.9564 0.2921
vn -0.0000 1.0000 -0.0000
vn 0.3472 -0.8711 -0.3472
vn 0.6883 -0.2290 -0.6883
vn -0.3472 -0.8711 -0.3472
vn -0.6883 -0.2290 -0.6883
vn 0.6883 -0.2290 0.6883
vn 0.3472 -0.8711 0.3472
vn -0.3472 -0.8711 0.3472
vn -0.6883 -0.2290 0.6883
vn 0.4845 -0.8748 -0.0000
vn 0.9734 -0.2292 -0.0000
vn -0.0000 -0.8748 -0.4845
vn -0.0000 -0.2292 -0.9734
vn -0.4845 -0.8748 -0.0000
vn -0.9734 -0.2292 -0.0000
vn -0.0000 -0.8748 0.4845
vn -0.0000 -0.2292 0.9734
vt 0.028302 0.661490
vt 0.500000 0.661490
vt 0.500000 0.516137
vt 0.051147 0.516137
vt 0.971698 0.661490
vt 0.948853 0.516137
vt 0.500000 0.361529
vt 0.888668 0.361529
vt 0.111332 0.361529
vt -0.101004 0.500000
vt 0.059492 0.940508
vt 0.500000 1.101004
vt 0.500000 0.500000
vt 0.940508 0.940508
vt 1.101004 0.500000
vt 0.500000 -0.101004
vt 0.940508 0.059492
vt 0.059492 0.059492
vt 0.111332 0.111332
vt 0.500000 -0.030275
vt 0.500000 0.177690
vt 0.263762 0.263762
vt 0.888668 0.111332
vt 1.030275 0.500000
vt 0.822310 0.500000
vt 0.736238 0.263762
vt 0.888668 0.888668
vt 0.500000 1.030275
vt 0.500000 0.822310
vt 0.736238 0.736238
vt -0.030275 0.500000
vt 0.177690 0.500000
vt 0.263762 0.736238
vt 0.111332 0.888668
vt 0.940508 0.710331
vt 0.500000 0.710331
vt 0.059492 0.710331
s 1
usemtl Material.005
f 28/1/28 38/2/38 7/3/7 2/4/2
f 30/1/30 40/2/40 8/3/8 3/4/3
f 34/5/34 42/2/42 9/3/9 5/6/5
f 42/2/42 31/1/31 4/4/4 9/3/9
f 4/6/4 6/3/6 15/7/15 13/8/13
f 2/4/2 7/3/7 16/7/16 11/9/11
f 3/4/3 8/3/8 17/7/17 12/9/12
f 5/6/5 9/3/9 18/7/18 14/8/14
f 35/10/35 32/11/32 41/12/41 1/13/1
f 40/2/40 34/5/34 5/6/5 8/3/8
f 1/13/1 41/12/41 33/14/33 39/15/39
f 37/16/37 1/13/1 39/15/39 29/17/29
f 27/18/27 35/10/35 1/13/1 37/16/37
f 31/5/31 36/2/36 6/3/6 4/6/4
f 38/2/38 30/5/30 3/6/3 7/3/7
f 11/19/11 16/20/16 23/21/23 10/22/10
f 12/23/12 17/24/17 24/25/24 19/26/19
f 14/27/14 18/28/18 25/29/25 21/30/21
f 15/31/15 11/19/11 10/22/10 22/32/22
f 9/3/9 4/4/4 13/9/13 18/7/18
f 8/3/8 5/6/5 14/8/14 17/7/17
f 7/3/7 3/6/3 12/8/12 16/7/16
f 6/3/6 2/4/2 11/9/11 15/7/15
f 10/22/10 23/21/23 26/13/26 22/32/22
f 23/21/23 19/26/19 24/25/24 26/13/26
f 26/13/26 24/25/24 21/30/21 25/29/25
f 22/32/22 26/13/26 25/29/25 20/33/20
f 13/34/13 15/31/15 22/32/22 20/33/20
f 18/28/18 13/34/13 20/33/20 25/29/25
f 17/24/17 14/27/14 21/30/21 24/25/24
f 16/20/16 12/23/12 19/26/19 23/21/23
f 32/35/32 35/36/35 36/2/36 31/5/31
f 35/36/35 27/37/27 28/1/28 36/2/36
f 27/37/27 37/36/37 38/2/38 28/1/28
f 37/36/37 29/35/29 30/5/30 38/2/38
f 29/37/29 39/36/39 40/2/40 30/1/30
f 39/36/39 33/35/33 34/5/34 40/2/40
f 33/35/33 41/36/41 42/2/42 34/5/34
f 41/36/41 32/37/32 31/1/31 42/2/42
f 36/2/36 28/1/28 2/4/2 6/3/6
